<?xml version="1.0" encoding="UTF-8"?>
<svg id="Layer_2" data-name="Layer 2" xmlns="http://www.w3.org/2000/svg" viewBox="0 0 1000 973.99">
  <g id="Layer_1-2" data-name="Layer 1">
    <g>
      <path d="m167.46,0C389.47,0,611.48,0,833.49,0c1.22.28,2.42.67,3.66.82,6.28.79,12.66,1.06,18.83,2.34,57.86,12,100.27,44.37,126.7,97.2,9.71,19.41,15.52,40.09,16.48,61.94.06,1.38.55,2.75.84,4.13v640.97c-.41,4.07-.72,8.15-1.26,12.2-2.14,16.09-6.26,31.65-12.64,46.61-27.94,65.53-91.71,107.7-163.74,107.73-214.63.1-429.27.04-643.9.02-14.16,0-28.13-1.77-41.92-4.97-69.59-16.16-123.95-75.42-133.78-145.76-.74-5.3-1.83-10.55-2.76-15.82C0,593.74,0,380.08,0,166.42c.6-2.6,1.49-5.17,1.76-7.8,2.88-28.09,11.75-54.15,27.37-77.63C59.01,36.03,100.77,9.47,154.35,1.75,158.71,1.12,163.09.58,167.46,0Zm235.56,582.73c.56,1.55,1.11,3.02,1.62,4.51,10.32,30.11,20.63,60.23,30.95,90.35,2.29,6.7,2.97,7.19,9.8,7.19,27.11,0,54.23,0,81.34,0,1.11,0,2.22.04,3.33-.04,3.82-.27,4.98-1.85,4.05-5.66-.41-1.69-1.04-3.33-1.62-4.97-13.61-38.02-27.23-76.04-40.85-114.07-36.15-100.94-72.3-201.89-108.45-302.83-2.12-5.91-2.49-6.33-7.85-6.34-34.57-.04-69.13-.04-103.7,0-4.9,0-5.96,1-5.91,5.85.15,14.28-2.85,27.88-7.57,41.34-30.77,87.73-61.34,175.52-91.98,263.3-13.41,38.43-26.86,76.85-40.27,115.28-2.83,8.12-1.53,9.91,7.03,9.92,19.19,0,38.37,0,57.56,0,5.55,0,11.1.04,16.65-.02,4.88-.05,6.77-1.47,8.41-6.09.21-.6.35-1.22.54-1.82,9.73-30.14,19.45-60.29,29.19-90.43.58-1.78,1.23-3.53,1.9-5.45h155.81Zm423.93,20.3c-6.24,2.02-11.85,4.18-17.63,5.65-19.54,4.98-39.4,7.86-59.57,8.91-20.65,1.08-40.38-2.36-59.38-10.37-15.55-6.56-27-17.45-34.41-32.59-3.78-7.73-6.29-15.89-7.88-24.33-.29-1.52-.28-3.09-.47-5.36h6.48c39.32,0,78.63-.03,117.95.03,6.33,0,12.66.43,19,.64,9.81.32,19.63.97,29.44.83,8.86-.13,17.71-1.1,26.56-1.78,4.05-.31,6.04-2.14,6.39-6.27.9-10.73,1.77-21.46,2.33-32.21,1.18-22.38-1.44-44.32-9.04-65.47-9.76-27.16-24.64-50.72-49.29-66.91-22.57-14.83-47.69-21.82-74.51-22.64-10.27-.31-20.61.13-30.87.91-19.16,1.46-37.39,6.29-54.27,15.87-31.99,18.15-54.69,44.59-68.46,78.32-20.22,49.52-21.3,100.02-3.74,150.46,11.84,34,33.76,60.32,65.28,78.18,22.36,12.67,46.82,18.22,72.21,20.03,23.47,1.68,46.88,1.01,70.17-2.66,16.33-2.57,32.28-6.4,47.64-12.64,4.84-1.96,6.81-5.07,6.79-10.13-.09-20.6-.02-41.2-.06-61.8,0-1.49-.41-2.98-.65-4.68Z"/>
      <path d="m323.39,325.93c.75,1.65,1.23,2.4,1.45,3.21,15.75,57.18,34.54,113.44,52.37,169.99-4,1.2-97.32,1.58-105,.59-.99-1.77.25-3.3.77-4.84,15.1-45.19,28.14-91.02,42.08-136.57,2.87-9.37,4.75-19.03,7.11-28.55.24-.99.61-1.94,1.22-3.83Z"/>
      <path d="m647.59,484.68c.18-2.23.18-3.8.45-5.32,1.49-8.14,3.85-16.01,7.67-23.37,11.02-21.26,28.56-32.44,52.49-33.36,7.28-.28,14.54.21,21.62,2.38,22.77,6.98,39.17,28.64,39.06,51.77-.02,4.28-.33,4.92-4.31,6.16-2.24.69-4.63,1.18-6.97,1.24-9.82.27-19.64.45-29.45.48-24.87.06-49.74.02-74.61.02h-5.96Z"/>
    </g>
  </g>
</svg>