<?xml version="1.0" encoding="UTF-8"?>
<svg id="Layer_2" data-name="Layer 2" xmlns="http://www.w3.org/2000/svg" viewBox="0 0 1000 975">
  <g id="Layer_1-2" data-name="Layer 1">
    <g>
      <path d="m836.67,975H162.5c-.29-.85-1.04-.79-1.7-.79-8.23-.03-16.33-1.6-24.18-3.55-29.05-7.22-55.17-20.48-77.53-40.52-19.36-17.35-34.32-38.01-44.63-61.95-6.38-14.82-10.87-30.15-13-46.21-.41-3.12.45-6.56-1.47-9.47V162.5c.85-.3.76-1.04.8-1.71.77-13.05,3.53-25.7,7.6-38.1,7.74-23.61,19.71-44.92,36.24-63.39,17.68-19.75,38.77-35.06,63.36-45.31,13.22-5.51,26.77-9.66,41.03-11.67,4.48-.63,9.13-.75,13.48-2.32h673.33c.21.63.73.67,1.3.74,8.9,1.12,17.79,2.15,26.59,4.17,27.7,6.38,52.25,18.9,73.86,37.22,20.75,17.6,36.65,38.9,47.5,63.87,5.51,12.69,9.48,25.83,11.79,39.55,1,5.92.89,12.08,3.14,17.78v649.16c-1.4,1.63-1.42,3.85-1.53,5.64-.7,10.93-3.32,21.45-6.42,31.85-7.77,26.1-21.28,48.99-39.79,68.88-18.51,19.9-40.56,34.7-65.94,44.37-11.58,4.41-23.47,7.78-35.86,9.41-4.58.6-9.37.6-13.79,2.34ZM404.95,248.01h-18.75c-10.97,0-21.94,0-32.91,0-5.93,0-6.58.61-6.63,6.34-.02,2.77-.56,5.49-.74,8.22-.67,10.39-2.34,20.47-5.85,30.37-10.63,30-20.84,60.14-31.29,90.2-12.76,36.72-25.64,73.4-38.4,110.13-12.71,36.59-25.3,73.23-37.99,109.83-8.71,25.11-17.54,50.18-26.28,75.28-1.87,5.37-1.55,6.2,3.16,8.32,1.07.48,2.42.45,3.64.46,5.55.05,11.11.02,16.66.02,19.3,0,38.61-.08,57.91.07,3.99.03,7.16-1.45,8.31-4.88,6.77-20.14,13.54-40.29,19.72-60.63,3.52-11.57,8.07-22.83,11.12-34.55.8-3.08,2.09-3.92,5.17-3.92,49.02.1,98.05.12,147.07-.03,3.63-.01,4.95,1.27,6.03,4.47,10.5,30.87,21.16,61.7,31.77,92.53,2.08,6.05,3.3,6.94,9.64,6.94,27.22,0,54.44,0,81.66,0,1.39,0,2.78-.04,4.16-.18,3.01-.3,4.05-2.15,3.58-4.94-.23-1.36-.7-2.68-1.17-3.98-7.9-22.35-15.73-44.72-23.76-67.02-16.69-46.35-32.6-92.97-49.63-139.21-5.28-14.35-10.3-28.84-15.14-43.37-4.73-14.19-9.81-28.25-14.94-42.3-3.89-10.65-7.76-21.33-11.64-31.98-2.65-7.26-5.06-14.69-7.56-22.03-5.05-14.87-10.69-29.53-15.95-44.33-4.03-11.33-8.04-22.66-11.63-34.13-1.39-4.43-3.74-5.8-8.13-5.75-17.08.17-34.16.07-51.24.07Zm350.05,274.57c0-53.05,0-106.09,0-159.14,0-6.3-1.29-7.6-7.5-7.61-25.69,0-51.38,0-77.07,0-8.1,0-8.76.66-8.76,8.76,0,104.98,0,209.97,0,314.95,0,.97-.03,1.95,0,2.92.2,4.61,2.11,6.58,6.66,6.69,3.89.09,7.78.02,11.66.02,21.66,0,43.33.26,64.99-.13,8.96-.16,10.08-.87,10.06-9.81-.1-52.21-.05-104.43-.05-156.64Zm-44.43-306.22c-10.97-.1-21.47,2.14-30.65,8.42-12.31,8.41-20.43,19.29-21.91,34.99-.79,8.39-1.3,16.55,1.17,24.49,5.92,19.01,17.42,31.72,38.35,35.02,4.99.79,9.95,1.52,14.89,1.47,13.92-.15,25.7-5.71,35.01-15.94,7.61-8.36,11.63-18.29,12.79-29.77,1.35-13.28-.5-25.58-7.6-36.88-9.7-15.41-24.34-21.54-42.05-21.81Z"/>
      <path d="m404.19,324.94c2.47,4.27,3.23,8.9,4.54,13.33,2.21,7.49,4.42,14.99,6.31,22.57,3.49,14,8.63,27.48,12.62,41.3,4.24,14.71,9.53,29.08,13.51,43.89,3.63,13.47,8.37,26.66,13.19,39.77,1.32,3.59,1.97,7.29,3.29,10.82.65,1.74.13,2.3-1.57,2.22-.69-.03-1.39,0-2.08,0-32.35,0-64.71-.04-97.06.06-3.53.01-4.28-.31-3.16-4.2,3.79-13.13,8.61-25.92,12.46-39.04,4.05-13.8,7.94-27.67,12.64-41.31,4.57-13.28,7.98-26.96,12.18-40.38,1.26-4.02,1.6-8.51,2.94-12,2.5-6.54,3.78-13.33,5.91-19.91,1.35-4.16,3.61-8.37,2.06-13.15-.56-1.74,2.08-2.17,2.22-3.98Z"/>
    </g>
  </g>
</svg>