<?xml version="1.0" encoding="UTF-8"?>
<svg id="Layer_2" data-name="Layer 2" xmlns="http://www.w3.org/2000/svg" viewBox="0 0 1000 977.97">
  <g id="Layer_1-2" data-name="Layer 1">
    <g>
      <path d="m1000,154.19v663c-.8.75-2.17,1.41-2.3,2.27-1.02,6.5-1.18,13.18-2.74,19.53-14.4,58.57-48.75,100.64-104.4,124.61-16.36,7.04-33.18,12.76-51.54,10.33-.57-.07-1.2.37-2.89.93,5.08,1.22,9.04,2.18,12.99,3.13H159.69c.63-.52,1.26-1.03,2.39-1.96-3.02-.49-5.32-1.04-7.66-1.21-13.97-1-27.49-3.95-40.47-9.26-57.91-23.67-94.18-66.03-108.58-126.8-1.94-8.2-1.06-17.06-1.48-25.62-.21-.04-.41-.08-.62-.13-1.09,5.43-2.17,10.87-3.26,16.3,0-226.51,0-453.01,0-679.52.97,5.27,1.94,10.54,2.92,15.81-.62-44.48,18.18-80.71,47.83-112.01C80.69,21.98,117.89,5.18,162.11,2.28c-2.12-1.05-3.37-1.67-4.62-2.28,230.91,0,461.82,0,692.73,0-2.97.57-5.94,1.14-8.92,1.7,42.41,3.72,78.37,21.26,107.76,51.73,29.32,30.4,46.36,66.68,49.1,109.23.61-2.83,1.23-5.65,1.84-8.48ZM224.93,470.69c0,70.11,0,140.22,0,210.32,0,1.65-.52,3.57.15,4.89.91,1.82,2.45,3.88,4.22,4.58,2.28.9,5.05.69,7.62.7,23.31.1,46.62.18,69.92.16,7.21,0,8.76-1.43,8.78-8.78.08-41.29.08-82.59-.03-123.88-.02-8.21-.3-8.12,8.08-7.7,38.43,1.97,76.86,1.89,113.87-10.08,53.45-17.29,88.69-51.82,99.34-108.78,4.56-24.39,4.29-48.66-1.33-72.56-8.94-37.99-30.89-66.86-64.99-86.04-20.78-11.68-42.79-20.03-66.91-21.48-21.39-1.29-42.79-3.55-64.18-3.48-35.76.12-71.51,1.78-107.27,2.73-7.23.19-7.24.05-7.24,7.42,0,70.66,0,141.32,0,211.98Zm360.96,124.62c-.43,3.89-1.04,6.87-1.05,9.84-.07,21.65.26,43.31-.19,64.95-.14,6.74,2.54,10.16,8.29,12.44,14.84,5.89,29.94,10.46,45.8,13.08,38.66,6.37,77,7.35,114.66-5.16,37.02-12.3,62.62-35.9,70.96-75.27,7.85-37.05-1.16-69.08-31.52-92.79-12.29-9.6-26.51-17.03-40.58-23.96-15.4-7.6-31.87-13-47.44-20.3-9.18-4.31-18.41-9.41-25.99-16.01-11.62-10.12-6.85-27.48,8.15-31.2,8.63-2.14,17.78-4.16,26.5-3.52,18.2,1.33,36.43,3.61,54.31,7.17,10.79,2.15,21,7.34,31.39,11.36,6.29,2.44,10.2.87,10.22-4.81.08-22.57-.05-45.14.02-67.71.01-3.81-1.46-6.42-4.94-7.7-6.17-2.26-12.28-4.85-18.64-6.38-27.15-6.51-54.81-7.34-82.54-6.55-21.06.6-41.4,4.62-60.45,14.18-19.89,9.98-35.81,24.1-46.47,43.76-9.4,17.33-11.4,36.07-10.48,55.44.76,16.1,5.9,30.53,15.51,43.28,11.12,14.76,25.42,26.11,41.8,34.23,19.98,9.91,40.55,18.64,60.97,27.64,10.29,4.54,20.61,8.99,27.71,18.19,7.92,10.25,4.71,22.58-6.82,28.41-12.65,6.41-26.45,6.57-39.83,6.03-31.88-1.28-62.12-9.67-90.46-24.53-2.54-1.33-5.21-2.43-8.88-4.13Z"/>
      <path d="m315.85,401.98c0-21.47.14-42.95-.11-64.42-.06-4.87,1.54-6.39,6.26-6.44,22.9-.26,45.89-2.38,68.58,2.35,30.62,6.39,53.08,21.64,57.8,58.02,4.4,33.91-9.85,57.26-35.01,69.35-15.12,7.27-31.55,10.89-48.31,11.63-14.29.63-28.63-.03-42.94.19-4.72.07-6.4-1.33-6.34-6.26.24-21.47.1-42.95.1-64.42h-.03Z"/>
    </g>
  </g>
</svg>