<?xml version="1.0" encoding="UTF-8"?>
<svg id="Layer_2" data-name="Layer 2" xmlns="http://www.w3.org/2000/svg" viewBox="0 0 999.26 973.99">
  <g id="Layer_1-2" data-name="Layer 1">
    <g>
      <path d="m166.62,0C388.97,0,611.32,0,833.68,0c.89.27,1.76.67,2.67.78,6.59.83,13.29,1.14,19.78,2.47,50.96,10.37,90.45,37.57,117.91,81.71,13.73,22.07,22.28,46.1,24.37,72.2.07.89.56,1.74.85,2.61v654.3c-.43,3.09-.78,6.19-1.29,9.26-8.64,52.04-34.77,92.91-78.78,122.03-29.93,19.8-63.24,28.63-99,28.63-212.16,0-424.32.01-636.47-.04-7.44,0-14.9-.38-22.31-.98-26.33-2.13-51.1-9.71-73.58-23.52C30.56,914.28.61,862.53.39,795.65-.3,589.8.11,383.95.23,178.1c0-9.16.76-18.4,2.17-27.45,6.96-44.57,27.81-81.48,62.57-110.28C90.72,19.04,120.34,6.22,153.54,1.8,157.9,1.22,162.26.6,166.62,0Zm161.41,548.04c5.03,0,9.29-.2,13.52.03,26.51,1.44,52.93.97,79.2-3.23,18.7-2.99,36.93-7.75,53.92-16.32,31.96-16.13,55.55-40.14,68.2-74.04,7.75-20.78,10-42.45,9.4-64.49-.51-18.4-4.19-36.2-11.25-53.17-14.52-34.92-40.3-58.56-74.71-73.27-24.81-10.61-50.96-15.11-77.75-16.07-13.62-.49-27.27-.44-40.9-.2-34.09.59-68.17,1.43-102.25,2.13-6.97.14-7.4.49-7.4,7.74,0,140.72,0,281.45,0,422.17,0,1.27-.06,2.55.1,3.8.33,2.72,1.51,3.89,4.27,4.22,1.41.17,2.85.09,4.28.09,24.1,0,48.2,0,72.31,0,.79,0,1.59.02,2.38,0,4.88-.15,6.52-1.77,6.69-6.6.04-1.11,0-2.22,0-3.33,0-40.89,0-81.77,0-122.66v-6.79Zm372.54-149.35c-.33-.13-.65-.25-.98-.38-.09-1.54-.18-3.09-.27-4.63-.59-10.3-1.87-20.51-4.69-30.45-1.87-6.56-4.62-8.4-11.4-8.41-22.99-.02-45.97-.02-68.96-.01-4.88,0-5.86,1.13-5.49,5.88.49,6.16,1.17,12.31,1.3,18.48.58,28.35,1.32,56.71,1.4,85.06.2,70.82.06,141.64.07,212.46,0,1.9-.08,3.81.08,5.7.33,3.88,2.14,5.56,6.1,5.85.79.06,1.58.02,2.38.02,25.68,0,51.36,0,77.05,0,1.11,0,2.23.05,3.33-.08,3.19-.39,4.42-1.65,4.68-4.9.14-1.73.08-3.48.08-5.23,0-65.75,0-131.5,0-197.25q0-12.29,10.01-19.4c1.94-1.37,3.87-2.86,6.03-3.78,7.84-3.37,15.61-7.05,23.71-9.66,19.13-6.18,38.83-9.04,58.97-8.69,8.89.15,9.3-.35,9.3-9.4,0-10.62,0-21.23,0-31.85,0-14.26.03-28.52-.02-42.78-.02-6.11-1.49-7.44-7.68-7.39-10.03.07-19.92,1.23-29.64,3.71-28.32,7.22-51.82,22.44-71.85,43.38-1.18,1.24-2.34,2.5-3.5,3.76Z"/>
      <path d="m328.6,470v-140.03c3.04-.25,5.84-.66,8.65-.69,14.42-.15,28.84-.37,43.26-.22,14.7.15,28.98,2.77,42.64,8.36,23.21,9.49,35.64,27.18,38.41,51.67,1.27,11.2.57,22.47-2.67,33.43-2.57,8.68-6.93,16.25-13.43,22.62-8.77,8.58-18.9,14.69-30.68,18.33-16.34,5.04-32.98,7.64-50.07,7.45-8.4-.09-16.8,0-25.2-.12-3.47-.05-6.93-.48-10.91-.77Z"/>
    </g>
  </g>
</svg>