
<svg version="1.1" id="Layer_2_00000068657482633882931000000014292344003807179943_"
	 xmlns="http://www.w3.org/2000/svg" xmlns:xlink="http://www.w3.org/1999/xlink" x="0px" y="0px" viewBox="0 0 125 125"
	 style="enable-background:new 0 0 125 125;" xml:space="preserve">
<g id="Layer_1-2">
	<g>
		<path d="M62.5,125C28,125,0,97,0,62.5C0,28,28,0,62.5,0C97,0,125,28,125,62.5C125,97,97,125,62.5,125z M62.5,6
			C31.3,6,6,31.3,6,62.5S31.3,119,62.5,119S119,93.7,119,62.5S93.7,6,62.5,6z"/>
	</g>
	<g>
		<polygon points="84.1,62.7 51.8,95.1 47.5,90.8 75.6,62.7 47,34.2 51.3,29.9 		"/>
	</g>
</g>
</svg>
