<?xml version="1.0" encoding="UTF-8"?>
<svg id="Layer_2" data-name="Layer 2" xmlns="http://www.w3.org/2000/svg" viewBox="0 0 186.3 147.23">
  <defs>
    <style>
      .cls-1, .cls-2, .cls-3, .cls-4, .cls-5 {
        stroke-width: 0px;
      }

      .cls-2 {
        fill: #2d2d2d;
      }

      .cls-3 {
        fill: #232323;
      }

      .cls-4 {
        fill: #fff;
      }

      .cls-5 {
        fill: #e8e8e8;
      }
    </style>
  </defs>
  <g id="Layer_1-2" data-name="Layer 1">
    <g>
      <g>
        <rect class="cls-3" width="186.3" height="124.17"/>
        <rect class="cls-4" x="8.02" y="8.02" width="170.25" height="102.51"/>
        <polygon class="cls-5" points="133.9 8.02 8.02 8.02 8.02 110.53 33.13 110.53 133.9 8.02"/>
        <rect class="cls-2" x="76.34" y="124.17" width="33.63" height="11.22"/>
        <rect class="cls-3" x="69.08" y="135.39" width="48.15" height="11.84"/>
      </g>
      <g>
        <path class="cls-1" d="m53.3,44.65c.43-.25.94-.38,1.53-.38.43,0,.83.08,1.2.25.37.17.7.39.97.66s.49.6.66.97.25.77.25,1.2c0,1.12-.51,2.01-1.53,2.67l-17.89,10.7,17.89,10.75c1.02.67,1.53,1.55,1.53,2.64,0,.88-.3,1.61-.9,2.19-.6.58-1.33.87-2.19.87-.59,0-1.1-.13-1.53-.38l-22.21-13.34c-1.08-.67-1.62-1.58-1.62-2.73,0-1.08.54-1.98,1.62-2.7l22.21-13.37Z"/>
        <path class="cls-1" d="m103.95,38.97l-18.13,45.31c-.72,1.21-1.66,1.82-2.82,1.82-.88,0-1.61-.29-2.19-.88-.58-.59-.87-1.32-.87-2.2,0-.39.09-.81.26-1.26l18.13-45.31c.16-.33.38-.65.68-.94.59-.59,1.3-.88,2.14-.88s1.56.3,2.16.9c.6.6.9,1.32.9,2.16,0,.47-.09.9-.26,1.29Z"/>
        <path class="cls-1" d="m152.67,58.01c1.08.72,1.62,1.63,1.62,2.7,0,1.16-.54,2.07-1.62,2.73l-22.21,13.34c-.43.25-.94.38-1.53.38-.86,0-1.59-.29-2.19-.87-.6-.58-.9-1.31-.9-2.19,0-1.1.51-1.98,1.53-2.64l17.89-10.75-17.89-10.7c-1.02-.67-1.53-1.56-1.53-2.67,0-.43.08-.83.25-1.2s.39-.7.66-.97c.27-.27.6-.49.97-.66.37-.17.77-.25,1.2-.25.59,0,1.1.13,1.53.38l22.21,13.37Z"/>
      </g>
    </g>
  </g>
</svg>