<?xml version="1.0" encoding="UTF-8"?>
<svg id="Layer_2" data-name="Layer 2" xmlns="http://www.w3.org/2000/svg" viewBox="0 0 186.3 147.23">
  <defs>
    <style>
      .cls-1 {
        fill: #7c7c7c;
      }

      .cls-1, .cls-2, .cls-3, .cls-4, .cls-5, .cls-6, .cls-7, .cls-8 {
        stroke-width: 0px;
      }

      .cls-2 {
        fill: #606060;
      }

      .cls-3 {
        fill: #2d2d2d;
      }

      .cls-4 {
        fill: #232323;
      }

      .cls-5 {
        fill: #fff;
      }

      .cls-6 {
        fill: #4b4b55;
      }

      .cls-7 {
        fill: #7c7c8c;
      }

      .cls-8 {
        fill: #e8e8e8;
      }
    </style>
  </defs>
  <g id="Layer_1-2" data-name="Layer 1">
    <g>
      <g>
        <rect class="cls-4" y="0" width="186.3" height="124.17"/>
        <rect class="cls-5" x="8.02" y="8.02" width="170.25" height="102.51"/>
        <polygon class="cls-8" points="133.9 8.02 8.02 8.02 8.02 110.53 33.13 110.53 133.9 8.02"/>
        <rect class="cls-3" x="76.34" y="124.17" width="33.62" height="11.22"/>
        <rect class="cls-4" x="69.08" y="135.39" width="48.15" height="11.84"/>
      </g>
      <g>
        <path class="cls-6" d="m75.06,59.74s-17.59-2.2-22.43,7.91c-4.84,10.11-7.04,28.58-11.87,29.46-4.84.88,34.3,7.91,47.05-20.23,12.76-28.14-12.75-17.15-12.75-17.15Z"/>
        <path class="cls-3" d="m93.96,44.93s9.09-7.18,23.01-15.83c13.75-8.54,31.07-15.83,31.07-15.83,0,0-8.71,14.45-20.52,26.09-10.41,10.26-20.81,20.38-20.81,20.38l-12.75-14.81Z"/>
        <path class="cls-1" d="m132.37,22.95s-23.31,11.28-38.7,25.35c-15.39,14.07,4.1,1.76,4.1,1.76,0,0,19.49-18.17,34.59-27.11Z"/>
        <rect class="cls-3" x="78.78" y="48.99" width="24.96" height="21.43" transform="translate(-17.08 72.16) rotate(-39.75)"/>
        <rect class="cls-1" x="80.71" y="54.31" width="8.32" height="21.43" transform="translate(-21.96 69.3) rotate(-39.75)"/>
        <polygon class="cls-2" points="93.67 45.81 83.12 54.46 85.61 57.39 95.87 48.6 93.67 45.81"/>
        <path class="cls-7" d="m72.56,62.23s-11.72-1.9-15.53,4.99c-3.81,6.89,6.45,3.08,15.53-4.99Z"/>
      </g>
    </g>
  </g>
</svg>