<?xml version="1.0" encoding="UTF-8"?>
<svg id="Layer_2" data-name="Layer 2" xmlns="http://www.w3.org/2000/svg" xmlns:xlink="http://www.w3.org/1999/xlink" viewBox="0 0 75.57 93">
  <defs>
    <style>
      .cls-1 {
        fill: url(#linear-gradient);
      }

      .cls-1, .cls-2 {
        stroke-width: 0px;
      }

      .cls-2 {
        fill: url(#linear-gradient-2);
      }
    </style>
    <linearGradient id="linear-gradient" x1="42.24" y1="76.33" x2="75.57" y2="76.33" gradientUnits="userSpaceOnUse">
      <stop offset="0" stop-color="#fe5829"/>
      <stop offset="1" stop-color="#e20026"/>
    </linearGradient>
    <linearGradient id="linear-gradient-2" x1="16.67" y1="92.59" x2="16.67" y2="0" xlink:href="#linear-gradient"/>
  </defs>
  <g id="Layer_1-2" data-name="Layer 1">
    <g>
      <path class="cls-1" d="m53.41,59.67h18.14c2.22,0,4.02,1.8,4.02,4.02v18.14c0,6.17-5.01,11.17-11.17,11.17h-18.14c-2.22,0-4.02-1.8-4.02-4.02v-18.14c0-6.17,5.01-11.17,11.17-11.17Z"/>
      <path class="cls-2" d="m3.45,0h11.29C25,0,33.33,8.33,33.33,18.59v68.16c0,3.22-2.61,5.83-5.83,5.83H3.45C1.54,92.59,0,91.04,0,89.14V3.45C0,1.54,1.54,0,3.45,0Z"/>
    </g>
  </g>
</svg>